PathFileType	4	(X/Y/Z)	Demo_SinglePerson_P1_0-412.trc
DataRate	CameraRate	NumFrames	NumMarkers	Units	OrigDataRate	OrigDataStartFrame	OrigNumFrames
29	29	5	22	m	29	257	412
Frame#	Time	Hip			RHip			RKnee			RAnkle			RBigToe			RSmallToe			RHeel			LHip			LKnee			LAnkle			LBigToe			LSmallToe			LHeel			Neck			Head			Nose			RShoulder			RElbow			RWrist			LShoulder			LElbow			LWrist			
		X1	Y1	Z1	X2	Y2	Z2	X3	Y3	Z3	X4	Y4	Z4	X5	Y5	Z5	X6	Y6	Z6	X7	Y7	Z7	X8	Y8	Z8	X9	Y9	Z9	X10	Y10	Z10	X11	Y11	Z11	X12	Y12	Z12	X13	Y13	Z13	X14	Y14	Z14	X15	Y15	Z15	X16	Y16	Z16	X17	Y17	Z17	X18	Y18	Z18	X19	Y19	Z19	X20	Y20	Z20	X21	Y21	Z21	X22	Y22	Z22	
257	8.862068965517242	3.9879181360218348	-0.07077891939640006	-0.3160705922166731	4.003845085265443	-0.14716446910950384	-0.4561113550499819	2.6975862067430034	-0.37019952331235606	0.04459651417285905	1.5178437213122051	-0.25449609330038653	0.45487220649107224	2.9418004083697014	-1.4203967930140606	-0.21817671826146579	2.5527545693040694	-1.0825481667406252	-0.07699094362115937	1.2358727142086363	-0.1398604663155927	0.5755724567689329	3.834263901555382	-0.05144070608876079	-0.13644738595331074	2.6106311828939015	-0.29687837093768	0.15955347558832506	1.2825457173695898	-0.059077360493939926	0.7362675456310674	0.7815710379462008	0.039815567132212994	0.7384101805716404	0.7441231730657205	0.0745964656167564	0.8395348379842342	1.1105780121196844	-0.009914823498223636	0.8202248662753746	5.997532451636025	1.0004883489546181	-0.9607353897867309	6.640034290706514	1.5534752050328475	-1.3623824239474362	6.305258834744924	1.1459764049796537	-1.4983301971511533	5.702435380285621	0.7495168621996202	-0.9682010476587994	4.900695037116301	0.2435720519200447	-0.7404325545374998	5.1472451425179	0.13799715200426385	-1.2493851715015696	5.812045152336582	0.9186052089920163	-0.609208616128049	5.046594271263828	0.4340252616733823	-0.46687943953942407	5.599081036498842	0.5213751066603882	-1.3065083584421495
258	8.89655172413793	3.975569152672702	-0.07900141187028349	-0.3201529926891176	4.0452104615662705	-0.14032948059341965	-0.4809117656664471	2.7407662419423295	-0.3834214733551457	0.014079429772415974	1.5238514071608587	-0.251093009596328	0.45724933804862994	2.9912204782784197	-1.4627368553684073	-0.23493347528800104	2.5862445681822224	-1.1226566841851227	-0.08739126701828888	1.2508375621759322	-0.14639563803930114	0.5688523035467706	3.8663921345433754	-0.0390529237880865	-0.13793774718155344	2.5626796235767286	-0.272959103365518	0.20859534206051641	1.332257108352866	-0.06820941595045986	0.7264155798338078	0.8294998835948088	0.03598161408864444	0.7698691008422254	0.8173683292991287	0.057881626334038025	0.8539034918804229	1.156889751987684	-0.021219524739131506	0.804822312224292	5.943268586534162	0.9667283386205155	-0.905036540333869	6.655177031697072	1.5631821275711137	-1.4000275071909989	6.306514433514689	1.1512737637111812	-1.48670579254303	5.672767845687778	0.7343065014860829	-0.9395059118533831	4.87563132358405	0.22494008229476875	-0.744204695900728	5.208975051192784	0.12831757192426818	-1.3403152019623132	5.787986564621454	0.90605715959902	-0.5736576292681418	5.0453657419036	0.45049368006404744	-0.39935949578471225	5.525062215116325	0.5256056222617382	-1.1627195536426382
259	8.931034482758621	3.9475845432734022	-0.07956259633421829	-0.2962386405091876	4.008593270892858	-0.15287820614579428	-0.4683868404377891	2.7494972238784263	-0.3920418119429292	0.002454657292929243	1.516242271999705	-0.2468363458785305	0.4617208981636291	3.027203186343468	-1.4929799247664626	-0.2472375000179248	2.690476925534263	-1.2014393676008532	-0.1296583548747804	1.2401478395931125	-0.14103829310639646	0.5745101508434176	3.814730410583323	-0.04078269581765479	-0.09331305892404851	2.5199678296478436	-0.24479118398274002	0.26482051025375875	1.3498149795282668	-0.07234018141600713	0.7200065333549569	0.9249425686883795	0.0018752395053134492	0.7370360619458106	0.8819973665013268	0.03793943236822404	0.8304977798676242	1.1727854382473335	-0.02712637996152863	0.7915651271376923	5.937159819026699	0.9629239173090663	-0.8990538426569441	6.643060853483835	1.5572548318399255	-1.360729433863847	6.288271272412502	1.138560715687736	-1.465985264164106	5.652346062486566	0.7107120021831823	-0.9618420415934543	4.857906506700225	0.2093277426559965	-0.7517860081946737	5.2388038714797736	0.10753665966479399	-1.4035919256800582	5.77744510563635	0.9087470745788544	-0.49919685654626367	4.983386671349828	0.4277013095778155	-0.3454733036937782	5.544773879700973	0.559220712135777	-1.1258668997609742
260	8.96551724137931	3.9491802955255224	-0.0785436215091487	-0.29575756511111434	4.009665297201987	-0.151452892801409	-0.4672188327987459	2.7403516725024892	-0.380855284975234	0.016656885955050094	1.510857821101893	-0.236193584649766	0.47193923273053495	2.90564103259535	-1.4083496570455623	-0.19799837626865222	2.663883802115681	-1.1750514436896369	-0.120650742694629	1.2093279950545084	-0.12012179528503054	0.5985092677772104	3.8120705263524903	-0.03627947205409613	-0.07973903600217526	2.459111189899581	-0.22227438579872885	0.32183851301924965	1.2974321447216361	-0.07162835512898032	0.7067623877820693	0.9785356293145209	-0.027631384197560654	0.6939055925469726	0.9208063830850355	0.01769645173041172	0.7836922045030585	1.081935458001554	-0.015731770616797737	0.7790426086811777	5.912311311598311	0.9513103705555916	-0.857815384921519	6.621132798243888	1.5377750763829916	-1.3335872053923907	6.2792377291910215	1.1364721487833216	-1.443169041301615	5.628408131064816	0.6996006898581031	-0.9365175899340147	4.862473669120346	0.20550945122727962	-0.7658501617825191	5.245406638727312	0.10282113793220218	-1.417489266466501	5.772377727524083	0.9091749530385339	-0.4664325425487564	4.989559650673872	0.4491182289858276	-0.2605182829563607	5.503037798107722	0.5820592906806996	-0.9859196523255694
261	9.0	3.9647391930169005	-0.07056037707552303	-0.29467875984364006	3.98901486949969	-0.15478773673617627	-0.45492282432040837	2.731891247828034	-0.3769467199717173	0.023909659176278106	1.533048520995397	-0.24524138448771624	0.461648446488019	2.990334468136027	-1.47398044875991	-0.2292886567571567	2.746014306996118	-1.2495570591769498	-0.1500558488966256	1.2186425670716727	-0.1199139515150348	0.6000890216971104	3.810256972823324	-0.0342981554184171	-0.07305379123084846	2.4827760523303875	-0.21303532782600287	0.33091207785005883	1.3650665512125375	-0.09731281055948894	0.662452657441974	1.0524668796023964	-0.060969394612712564	0.6568049310341217	0.9596429536604306	0.0007356333889981544	0.7559776214384345	1.142625370492201	-0.0391477351484499	0.7380206923965333	5.91835309484461	0.9540409469605212	-0.8682568855952721	6.625100892603491	1.5467164958867428	-1.3103291671649748	6.283142172362668	1.1423347375919772	-1.4379238548212367	5.638215009773043	0.6985387675872803	-0.9640653151172495	4.87958897455549	0.21734876793695643	-0.7655233309826196	5.259137914395718	0.11685913878071408	-1.4179056222986937	5.742540313027791	0.8934697580463535	-0.4182220407634423	4.949753230592762	0.44409946815676865	-0.16997068539286558	5.468022991272588	0.5893455077397237	-0.8907460784349541
